<?xml version="1.0" standalone="no"?>
<!DOCTYPE svg PUBLIC "-//W3C//DTD SVG 20010904//EN"
 "http://www.w3.org/TR/2001/REC-SVG-20010904/DTD/svg10.dtd">
<svg version="1.0" xmlns="http://www.w3.org/2000/svg"
 width="96.000000pt" height="96.000000pt" viewBox="0 0 96.000000 96.000000"
 preserveAspectRatio="xMidYMid meet">
<metadata>
Created by potrace 1.14, written by Peter Selinger 2001-2017
</metadata>
<g transform="translate(0.000000,96.000000) scale(0.100000,-0.100000)"
fill="#000000" stroke="none">
<path d="M440 830 c0 -6 -43 -10 -109 -10 -97 0 -111 -2 -137 -22 -42 -33 -93
-91 -94 -105 0 -7 -4 -13 -10 -13 -13 0 -13 -267 0 -275 6 -3 10 -24 10 -46 0
-21 5 -39 10 -39 6 0 10 -43 10 -110 l0 -110 38 -1 c50 -2 135 1 138 4 2 1 4
28 5 60 2 37 8 61 16 66 8 4 15 16 15 27 2 15 10 19 43 20 l41 1 2 -85 c1 -47
4 -87 6 -89 7 -7 167 -6 173 1 4 4 6 52 6 109 -1 96 10 156 38 208 13 25 52
24 100 -3 36 -20 44 -30 40 -51 -1 -4 3 -16 9 -26 14 -27 -13 -48 -43 -34 -37
18 -87 16 -87 -3 0 -10 -5 -14 -15 -11 -8 4 -17 2 -20 -4 -4 -5 -1 -8 7 -7 8
2 14 -8 16 -25 5 -41 47 -63 116 -61 39 2 65 9 86 24 l30 21 0 234 0 233 -33
44 c-63 83 -79 88 -253 88 -96 0 -154 -4 -154 -10z"/>
<path d="M625 260 c3 -5 8 -10 11 -10 2 0 4 5 4 10 0 6 -5 10 -11 10 -5 0 -7
-4 -4 -10z"/>
</g>
</svg>
